IKResults
version=1
nRows=15
nColumns=42
inDegrees=yes

Units are S.I. units (second, meters, Newtons, ...)
Angles are in degrees.

endheader
time	pelvis_tilt	pelvis_list	pelvis_rotation	pelvis_tx	pelvis_ty	pelvis_tz	hip_flexion_r	hip_adduction_r	hip_rotation_r	knee_angle_r	knee_adduction_r	knee_angle_r_beta	ankle_angle_r	subtalar_angle_r	mtp_angle_r	hip_flexion_l	hip_adduction_l	hip_rotation_l	knee_angle_l	knee_adduction_l	knee_angle_l_beta	ankle_angle_l	subtalar_angle_l	mtp_angle_l	lumbar_extension	lumbar_bending	lumbar_rotation	arm_flex_r	arm_add_r	arm_rot_r	elbow_flex_r	pro_sup_r	wrist_flex_r	wrist_dev_r	arm_flex_l	arm_add_l	arm_rot_l	elbow_flex_l	pro_sup_l	wrist_flex_l	wrist_dev_l
      0.00000000	    -12.67945108	     -0.02996617	     26.93026694	      0.97062711	      0.95983250	      0.00329523	     15.64493500	    -12.09186674	     -9.40322265	      9.83504840	      6.47602164	      0.17165398	      7.20521199	     -8.83836913	      7.58807712	     20.67471441	      4.10722875	      0.50638472	     21.25461438	      5.09547410	      0.37096300	      8.16571341	     -6.05258463	      5.25643067	    -12.09231932	     -2.62079410	     -6.40512913	    -29.57279124	    -22.77258824	      4.68087918	     96.33986165	     86.72635468	      0.00000000	      0.00000000	     10.11474139	    -23.58747132	     20.44691004	     64.93487645	     87.79175111	      0.00000000	      0.00000000
      0.00666158	    -12.84679278	     -0.15443138	     26.78154252	      0.97061005	      0.95934636	      0.00351641	     15.96395776	    -12.01146700	     -9.19512367	      9.91275828	      6.47602164	      0.17301027	      7.06530859	     -8.89451762	      7.10785097	     21.04321959	      3.92272664	      0.18029716	     21.35131466	      5.09547410	      0.37265074	      8.11569804	     -6.11661302	      4.91924645	    -11.83687861	     -2.61267051	     -6.23962013	    -29.69654021	    -22.70230295	      4.01127958	     97.11348688	     86.00715314	      0.00000000	      0.00000000	     10.02670198	    -23.55033655	     19.72064194	     65.81096673	     87.42794600	      0.00000000	      0.00000000
      0.01332316	    -12.45987336	     -0.06462007	     26.92498136	      0.97070388	      0.95997230	      0.00330066	     15.39956327	    -11.94081809	     -9.43725655	      9.76654933	      6.47602164	      0.17045844	      7.14979326	     -8.84315094	      7.33547125	     20.67371570	      3.78990047	      0.18435411	     21.28935492	      5.09547410	      0.37156934	      8.11455263	     -6.21952392	      5.18821832	    -12.22985589	     -2.50269685	     -6.40863211	    -29.51352957	    -22.77921724	      4.67407125	     96.31931718	     86.75687189	      0.00000000	      0.00000000	     10.11359608	    -23.56274772	     20.34354443	     65.01040683	     87.76214658	      0.00000000	      0.00000000
      0.01998473	    -12.45345484	     -0.08959824	     26.89726595	      0.97071236	      0.95988388	      0.00323447	     15.38950085	    -11.90995086	     -9.37915434	      9.70782243	      6.47602164	      0.16943346	      7.07451773	     -8.86923984	      7.22681179	     20.79695428	      3.67231992	      0.00630876	     21.33170543	      5.09547410	      0.37230849	      8.03771346	     -6.35753232	      5.14252405	    -12.18466184	     -2.47180623	     -6.42861223	    -29.51448107	    -22.83143672	      4.61281120	     96.47933346	     86.60407335	      0.00000000	      0.00000000	     10.01967901	    -23.53280556	     20.14679612	     65.13697702	     87.75750837	      0.00000000	      0.00000000
      0.02664631	    -12.33386359	     -0.14574304	     26.92342637	      0.97074034	      0.95994920	      0.00335087	     15.27957585	    -11.78881790	     -9.43654170	      9.70135097	      6.47602164	      0.16932052	      7.08217127	     -8.87912525	      7.26651719	     20.83449139	      3.45123916	     -0.17838995	     21.37872402	      5.09547410	      0.37312912	      8.03110322	     -6.44936855	      5.20614164	    -12.24206268	     -2.39837431	     -6.46447053	    -29.42623292	    -22.81698693	      4.70376724	     96.35071351	     86.65670702	      0.00000000	      0.00000000	     10.03292147	    -23.56800495	     20.16662836	     65.07917008	     87.77862198	      0.00000000	      0.00000000
      0.03330789	    -12.27063971	     -0.19872770	     26.90915906	      0.97075756	      0.95992458	      0.00333340	     15.23267957	    -11.70163756	     -9.43496831	      9.68232700	      6.47602164	      0.16898849	      7.08375223	     -8.87101509	      7.15866935	     20.91932546	      3.27051292	     -0.32425654	     21.40659195	      5.09547410	      0.37361551	      7.96657638	     -6.66085470	      5.16019297	    -12.24560105	     -2.32532068	     -6.49287442	    -29.37541817	    -22.83933194	      4.57486133	     96.56268124	     86.39469111	      0.00000000	      0.00000000	      9.95917006	    -23.54019682	     19.85389409	     65.35473556	     87.71583903	      0.00000000	      0.00000000
      0.03996947	    -12.29027587	     -0.26457888	     26.89226223	      0.97074286	      0.95975074	      0.00342006	     15.30214164	    -11.63625638	     -9.38885499	      9.71195660	      6.47602164	      0.16950562	      7.14750967	     -8.86804858	      7.40311996	     21.13750111	      3.08816844	     -0.54511240	     21.53168333	      5.09547410	      0.37579877	      8.05086543	     -6.58726266	      5.39859883	    -12.12859719	     -2.29285877	     -6.43279663	    -29.43186058	    -22.83016197	      4.79140981	     96.24803496	     86.82075627	      0.00000000	      0.00000000	      9.98169301	    -23.56103386	     20.22179039	     65.05366469	     87.78291437	      0.00000000	      0.00000000
      0.04663104	    -12.13701192	     -0.26025333	     26.92596018	      0.97081505	      0.95991553	      0.00337367	     15.09705728	    -11.56674195	     -9.44747531	      9.64035474	      6.47602164	      0.16825593	      7.11597585	     -8.89538078	      7.32755584	     21.09506849	      2.91954036	     -0.66899697	     21.53216240	      5.09547410	      0.37580713	      7.98678798	     -6.73429065	      5.36101158	    -12.25375385	     -2.23469123	     -6.53464235	    -29.32579094	    -22.85271795	      4.71040605	     96.41102625	     86.55560090	      0.00000000	      0.00000000	      9.92839510	    -23.55917601	     19.95164821	     65.20331859	     87.76735495	      0.00000000	      0.00000000
      0.05329262	    -12.29239092	     -0.38556302	     26.82906118	      0.97077915	      0.95947557	      0.00343982	     15.38229802	    -11.50497412	     -9.32464328	      9.71470661	      6.47602164	      0.16955362	      7.00197068	     -8.92252479	      6.95935615	     21.48443995	      2.71889874	     -0.96331695	     21.65669031	      5.09547410	      0.37798055	      7.90570651	     -6.82810503	      5.08396251	    -11.99460337	     -2.19130547	     -6.43091986	    -29.42547759	    -22.77818822	      4.13750584	     97.09546670	     85.94390574	      0.00000000	      0.00000000	      9.79663877	    -23.50869067	     19.36929804	     66.01788400	     87.43848100	      0.00000000	      0.00000000
      0.05995420	    -12.00983940	     -0.34133723	     26.94799493	      0.97081799	      0.95985711	      0.00337020	     14.99295599	    -11.42439337	     -9.48687817	      9.64181071	      6.47602164	      0.16828134	      7.21642809	     -8.88464501	      7.54102313	     21.32328734	      2.54027216	     -1.00215596	     21.69708913	      5.09547410	      0.37868564	      7.99147422	     -6.84160181	      5.57526303	    -12.24321291	     -2.10388809	     -6.56465944	    -29.31566532	    -22.86173023	      4.80857617	     96.25270542	     86.81189080	      0.00000000	      0.00000000	      9.88991181	    -23.56959773	     20.06433626	     65.11310264	     87.78943526	      0.00000000	      0.00000000
      0.06661578	    -11.88047531	     -0.33374138	     26.96019236	      0.97087585	      0.95998319	      0.00332288	     14.82558925	    -11.36709991	     -9.51694292	      9.58669300	      6.47602164	      0.16731936	      7.16586389	     -8.89273346	      7.45289012	     21.32172447	      2.36955426	     -1.10421306	     21.72264540	      5.09547410	      0.37913168	      7.94471791	     -6.94101170	      5.53405050	    -12.34694092	     -2.06523642	     -6.65877539	    -29.21161506	    -22.91808787	      4.81879916	     96.37629585	     86.58814906	      0.00000000	      0.00000000	      9.81083866	    -23.55806294	     19.73855671	     65.31300893	     87.79305618	      0.00000000	      0.00000000
      0.07327735	    -11.81166729	     -0.36518557	     26.94970632	      0.97091437	      0.95997724	      0.00332637	     14.76241983	    -11.29536727	     -9.50204619	      9.56119427	      6.47602164	      0.16687432	      7.16814349	     -8.89898062	      7.48379072	     21.43190485	      2.17151338	     -1.26978590	     21.81303912	      5.09547410	      0.38070935	      7.93618866	     -7.01738969	      5.57031984	    -12.34461454	     -2.01087819	     -6.64474657	    -29.21406388	    -22.92974572	      4.86973472	     96.29186461	     86.69990894	      0.00000000	      0.00000000	      9.81118281	    -23.55186864	     19.81128889	     65.22050019	     87.79443316	      0.00000000	      0.00000000
      0.07993893	    -11.68638874	     -0.36944447	     26.96712794	      0.97093528	      0.96007889	      0.00327736	     14.61428154	    -11.23126926	     -9.54085063	      9.52782415	      6.47602164	      0.16629190	      7.15076902	     -8.90171174	      7.42221316	     21.46349129	      1.98408619	     -1.37968214	     21.86517963	      5.09547410	      0.38161938	      7.87291888	     -7.12720988	      5.54408872	    -12.43100834	     -1.94566886	     -6.72798068	    -29.12998123	    -22.97105112	      4.80428313	     96.47339472	     86.46763470	      0.00000000	      0.00000000	      9.74595570	    -23.53256841	     19.54179967	     65.38535620	     87.76906928	      0.00000000	      0.00000000
      0.08660051	    -11.82118137	     -0.52731388	     26.84376903	      0.97087671	      0.95969977	      0.00337636	     14.88438458	    -11.11586475	     -9.36505195	      9.53817591	      6.47602164	      0.16647257	      6.88676890	     -8.98122089	      7.26555183	     21.85727365	      1.71923130	     -1.64553017	     21.96372272	      5.09547410	      0.38333928	      7.70811805	     -7.21316414	      5.38739271	    -12.19408567	     -1.84831139	     -6.49822588	    -29.28945506	    -22.82518396	      3.86681289	     97.51329445	     85.52578887	      0.00000000	      0.00000000	      9.70963791	    -23.41468633	     18.76741555	     66.55548304	     87.22769848	      0.00000000	      0.00000000
      0.09326209	    -11.53810018	     -0.42015147	     26.97037771	      0.97099736	      0.96008469	      0.00328952	     14.47130975	    -11.09846157	     -9.54041945	      9.49504349	      6.47602164	      0.16571977	      7.18587488	     -8.91264946	      7.64589077	     21.68750829	      1.58375402	     -1.64467391	     22.05178498	      5.09547410	      0.38487625	      7.87794619	     -7.20240714	      5.68095414	    -12.45341039	     -1.84305697	     -6.75730056	    -29.10748235	    -22.98475697	      4.88415866	     96.39588068	     86.61064897	      0.00000000	      0.00000000	      9.70546217	    -23.54194748	     19.55632435	     65.33532777	     87.77671494	      0.00000000	      0.00000000
